<?xml version="1.0" encoding="iso-8859-1"?>
<!-- Generator: Adobe Illustrator 19.0.0, SVG Export Plug-In . SVG Version: 6.00 Build 0)  -->
<svg version="1.1" id="Layer_1" xmlns="http://www.w3.org/2000/svg" xmlns:xlink="http://www.w3.org/1999/xlink" x="0px" y="0px"
	 viewBox="0 0 511.998 511.998" style="enable-background:new 0 0 511.998 511.998;" xml:space="preserve">
<path style="fill:#283593;" d="M401.078,84.691h76.791V60.459c0.077-9.428-7.491-17.133-16.92-17.21
	c-0.793-0.009-1.578,0.043-2.363,0.145C435.804,46.637,401.078,56.023,401.078,84.691"/>
<path style="fill:#555656;" d="M486.401,84.691H25.655c-9.428,0-17.065,7.636-17.065,17.065v102.388
	c0,7.764,12.799,12.031,18.515,13.908s10.153,2.901,14.932,4.949c3.677,1.536,6.997,3.84,9.727,6.741
	c4.974,5.751,8.123,12.85,9.044,20.392c1.8,15.529-0.009,31.271-5.29,45.989c-7.781,19.821-17.167,38.967-28.071,57.252
	C18.402,370.269,8.59,389.125,8.59,408.92c-0.811,20.051,6.271,39.624,19.71,54.522c3.217,3.328,7.654,5.213,12.287,5.205h98.719
	c6.51,0.026,12.466-3.643,15.358-9.471c3.242-7.594,3.328-20.222-9.556-41.723c-15.529-25.597,3.584-61.262,20.904-85.323
	c6.314-8.532,12.372-15.785,16.467-20.307c3.311-3.473,7.918-5.392,12.713-5.29H268.4c7.611-0.009,14.292-5.06,16.382-12.372
	c2.671-9.078,6.007-17.952,9.983-26.536c3.823-8.473,8.635-16.467,14.334-23.805c2.952-3.677,8.319-4.266,11.996-1.314
	c2.031,1.63,3.208,4.087,3.191,6.689v40.273c0,9.428,7.636,17.065,17.065,17.065h145.05c9.428,0,17.065-7.636,17.065-17.065V101.756
	C503.466,92.328,495.821,84.691,486.401,84.691z M271.301,233.922c-5.768,10.205-10.29,21.058-13.481,32.338
	c-1.092,3.763-4.616,6.297-8.532,6.143h-61.518c-4.71,0-8.532-3.822-8.532-8.532v-34.129c0-4.71,3.822-8.532,8.532-8.532h76.108
	c4.71,0.009,8.524,3.831,8.515,8.549C272.393,231.217,272.017,232.651,271.301,233.922z"/>
<path style="fill:#717272;" d="M460.804,110.288H8.59v93.856c0,7.764,12.799,12.031,18.515,13.908s10.153,2.901,14.932,4.949
	c3.677,1.536,6.997,3.84,9.727,6.741c4.974,5.751,8.123,12.85,9.044,20.392c1.8,15.529-0.009,31.271-5.29,45.989
	c-7.781,19.821-17.167,38.967-28.071,57.252C18.402,370.269,8.59,389.125,8.59,408.92c-0.811,20.051,6.271,39.624,19.71,54.522
	c3.217,3.328,7.654,5.213,12.287,5.205h89.59c-1.971-9.113-5.589-17.781-10.665-25.597c-21.16-35.324,21.928-88.139,37.372-105.289
	c2.355-2.807,5.563-4.787,9.13-5.631c6.314-8.532,12.372-15.785,16.467-20.307c3.311-3.473,7.918-5.392,12.713-5.29H268.4
	c7.611-0.009,14.292-5.06,16.382-12.372c2.671-9.078,6.007-17.952,9.983-26.536c3.823-8.473,8.635-16.467,14.334-23.805
	c2.952-3.677,8.319-4.266,11.996-1.314c2.031,1.63,3.208,4.087,3.191,6.689v40.273c0,9.428,7.636,17.065,17.065,17.065h136.517
	V127.353C477.869,117.925,470.224,110.288,460.804,110.288z M257.82,266.259c-1.092,3.763-4.616,6.297-8.532,6.143h-61.518
	c-4.71,0-8.532-3.822-8.532-8.532v-34.129c0-4.71,3.822-8.532,8.532-8.532h76.108c4.71,0.009,8.524,3.831,8.515,8.549
	c0,1.459-0.375,2.892-1.092,4.164C265.533,244.127,261.011,254.98,257.82,266.259z"/>
<path d="M249.629,280.935h-61.859c-9.428,0-17.065-7.636-17.065-17.065v-34.129c0-9.428,7.636-17.065,17.065-17.065h76.108
	c6.118-0.026,11.783,3.234,14.846,8.532c3.046,5.282,3.046,11.783,0,17.065c-5.409,9.59-9.676,19.786-12.713,30.375
	C263.886,275.927,257.214,280.935,249.629,280.935z M263.963,229.741h-76.194v34.129h61.859
	C253.05,251.968,257.862,240.517,263.963,229.741L263.963,229.741l7.338,4.352L263.963,229.741z"/>
<path d="M187.769,195.612H8.59c-4.71,0-8.532-3.822-8.532-8.532s3.822-8.532,8.532-8.532h179.179c4.71,0,8.532,3.822,8.532,8.532
	S192.479,195.612,187.769,195.612z"/>
<path d="M503.466,195.612H324.286c-4.71,0-8.532-3.822-8.532-8.532s3.822-8.532,8.532-8.532h179.179c4.71,0,8.532,3.822,8.532,8.532
	S508.175,195.612,503.466,195.612z"/>
<path d="M486.401,93.224h-93.856v-8.532c0-26.365,23.037-43.942,64.931-49.658c14.019-1.834,26.868,8.037,28.711,22.048
	c0.154,1.177,0.23,2.363,0.213,3.549L486.401,93.224L486.401,93.224z M411.316,76.159h58.02v-15.7
	c0.026-2.483-1.041-4.846-2.901-6.485c-1.826-1.596-4.249-2.346-6.655-2.048C443.739,54.146,418.142,60.118,411.316,76.159z"/>
<path d="M139.305,477.179H40.586c-6.945,0.017-13.592-2.782-18.43-7.764C7.174,452.913-0.761,431.198,0.058,408.92
	c0-22.269,11.007-42.662,19.795-59.726c2.304-4.437,4.778-8.532,7.167-13.225c8.046-13.575,14.846-27.858,20.307-42.662
	c4.923-13.413,6.655-27.781,5.034-41.979c-0.623-5.853-3.003-11.391-6.826-15.87c-1.962-1.997-4.317-3.558-6.911-4.607
	c-2.782-1.177-5.631-2.201-8.532-3.072l-5.205-1.621c-7.764-2.389-24.829-8.106-24.829-22.013V101.756
	c0-14.138,11.459-25.597,25.597-25.597h460.746c14.138,0,25.597,11.459,25.597,25.597v187.711c0,14.138-11.459,25.597-25.597,25.597
	h-145.05c-14.138,0-25.597-11.459-25.597-25.597v-40.273c-10.358,14.326-18.08,30.392-22.781,47.44
	c-3.183,10.921-13.2,18.43-24.573,18.43h-73.207c-2.406,0.009-4.701,1.032-6.314,2.816c-27.133,30.119-51.194,70.904-36.433,95.221
	c12.201,20.307,15.529,36.945,10.068,49.573C158.341,471.693,149.237,477.384,139.305,477.179z M25.655,93.224
	c-4.71,0-8.532,3.822-8.532,8.532v102.388c3.814,2.782,8.131,4.778,12.713,5.887l4.778,1.451c3.686,1.032,7.304,2.287,10.836,3.754
	c4.718,1.954,8.993,4.855,12.543,8.532l0,0c6.203,6.962,10.136,15.657,11.263,24.914c2.125,16.877,0.196,34.018-5.631,50
	c-5.776,15.819-13.003,31.075-21.587,45.563c-2.389,4.351-4.778,8.532-7.082,12.969c-8.362,15.785-17.833,33.703-17.833,51.706
	c-0.887,17.816,5.239,35.273,17.065,48.634c1.613,1.647,3.831,2.577,6.143,2.56h98.975c3.106,0.026,5.981-1.638,7.508-4.351
	c1.792-4.096,2.986-13.908-9.044-34.129c-23.72-39.505,18.942-93.856,38.396-115.443c4.846-5.418,11.758-8.515,19.027-8.532H268.4
	c3.942,0.145,7.466-2.432,8.532-6.229c5.213-19.155,13.891-37.201,25.597-53.242c5.956-7.304,16.706-8.396,24.01-2.44
	c4.036,3.293,6.348,8.242,6.28,13.447v40.273c0,4.71,3.823,8.532,8.532,8.532h145.05c4.71,0,8.532-3.823,8.532-8.532V101.756
	c0-4.71-3.822-8.532-8.532-8.532L25.655,93.224L25.655,93.224z"/>
<path d="M469.336,306.532c-4.71,0-8.532-3.823-8.532-8.532v-76.791c0-4.71,3.823-8.532,8.532-8.532c4.71,0,8.532,3.822,8.532,8.532
	V298C477.869,302.71,474.046,306.532,469.336,306.532z"/>
<path d="M435.207,306.532c-4.71,0-8.532-3.823-8.532-8.532v-76.791c0-4.71,3.823-8.532,8.532-8.532s8.532,3.822,8.532,8.532V298
	C443.739,302.71,439.917,306.532,435.207,306.532z"/>
<path d="M401.078,306.532c-4.71,0-8.532-3.823-8.532-8.532v-76.791c0-4.71,3.823-8.532,8.532-8.532s8.532,3.822,8.532,8.532V298
	C409.61,302.71,405.787,306.532,401.078,306.532z"/>
<path d="M366.948,306.532c-4.71,0-8.532-3.823-8.532-8.532v-76.791c0-4.71,3.823-8.532,8.532-8.532c4.71,0,8.532,3.822,8.532,8.532
	V298C375.481,302.71,371.658,306.532,366.948,306.532z"/>
<g>
</g>
<g>
</g>
<g>
</g>
<g>
</g>
<g>
</g>
<g>
</g>
<g>
</g>
<g>
</g>
<g>
</g>
<g>
</g>
<g>
</g>
<g>
</g>
<g>
</g>
<g>
</g>
<g>
</g>
</svg>
